<svg xmlns="http://www.w3.org/2000/svg" viewBox="0 0 741.72 254.25"><defs><style>.cls-1{fill:#fe6b01;}.cls-2{fill:#0e3960;}</style></defs><g id="Layer_2" data-name="Layer 2"><g id="Layer_1-2" data-name="Layer 1"><path class="cls-1" d="M260.69,114.92V227.43A25.6,25.6,0,0,1,235.08,253H177.36q-7.74-24.71-15.46-49.45a25.17,25.17,0,0,1,5-24.26c12.35-13.89,16.62-33.49,10.47-51-6.73-19.09-24.76-32.49-45.57-33.8a23.71,23.71,0,0,0-2.92,0c-20.74,1.31-38.77,14.71-45.5,33.8-6.18,17.52-1.91,37.12,10.45,51a25.25,25.25,0,0,1,5,24.3Q91.07,228.33,83.37,253s0,0-.06,0v0H25.61A25.61,25.61,0,0,1,0,227.43V114.92A25.6,25.6,0,0,1,9,95.44L113.75,6.12a25.61,25.61,0,0,1,33.23,0L251.7,95.44A25.57,25.57,0,0,1,260.69,114.92Z"/><path class="cls-2" d="M25,21.52H56.46a6.35,6.35,0,0,1,6.36,6.35V35.3a6.38,6.38,0,0,1-2.16,4.77L29.24,67.73A6.35,6.35,0,0,1,18.69,63V27.87A6.35,6.35,0,0,1,25,21.52Z"/><path class="cls-2" d="M296.45,102.67H312.6v113H296.45Z"/><path class="cls-2" d="M347.79,211.8q-11.6-3.87-18.23-10l5.84-12.31a48.35,48.35,0,0,0,16.18,9.23,59.32,59.32,0,0,0,20.28,3.55q13.72,0,20.52-4.65t6.78-12.39a12.2,12.2,0,0,0-3.71-9.23,24.7,24.7,0,0,0-9.15-5.45q-5.44-1.89-15.39-4.26a158.42,158.42,0,0,1-20.12-6,33.19,33.19,0,0,1-13.1-9.23q-5.44-6.24-5.44-16.81a28.48,28.48,0,0,1,4.65-15.94q4.65-7.1,14.13-11.36t23.51-4.26a74.66,74.66,0,0,1,19.26,2.52,51.47,51.47,0,0,1,16.25,7.26l-5.21,12.63A57.14,57.14,0,0,0,390,118.37a55.6,55.6,0,0,0-15.47-2.29q-13.41,0-20.12,4.89t-6.71,12.63a12,12,0,0,0,3.79,9.23,26.23,26.23,0,0,0,9.39,5.53,146.86,146.86,0,0,0,15.23,4.18,154.23,154.23,0,0,1,20,6,33.78,33.78,0,0,1,13,9.15q5.44,6.15,5.45,16.57a28.16,28.16,0,0,1-4.74,15.86q-4.72,7.19-14.36,11.37t-23.67,4.18A75.55,75.55,0,0,1,347.79,211.8Z"/><path class="cls-2" d="M559.49,102.87H575.6v98.78h61.07v14H559.49Z"/><path class="cls-2" d="M296.45,252.05l5.38-14h2.41l5.35,14h-2.66l-3-8c-.07-.16-.16-.42-.27-.76s-.24-.73-.37-1.13-.25-.79-.35-1.14l-.24-.77.5,0c-.08.27-.18.57-.28.9l-.34,1-.34,1c-.11.33-.22.63-.31.9l-3,7.89Zm2.44-3.2.89-2.26h6.3l.94,2.26Z"/><path class="cls-2" d="M311.76,252.05v-14h2.57v11.59h6.37v2.4Z"/><path class="cls-2" d="M329.2,252.25a6.91,6.91,0,0,1-2.74-.54,6.7,6.7,0,0,1-2.2-1.51,6.78,6.78,0,0,1-1.45-2.29,8.36,8.36,0,0,1,0-5.75,6.88,6.88,0,0,1,1.45-2.29,6.7,6.7,0,0,1,2.2-1.51,6.91,6.91,0,0,1,2.74-.54,7,7,0,0,1,2.77.54,6.58,6.58,0,0,1,2.19,1.52,7,7,0,0,1,1.44,2.29,8.27,8.27,0,0,1,0,5.72,6.9,6.9,0,0,1-1.44,2.3,6.58,6.58,0,0,1-2.19,1.52A7,7,0,0,1,329.2,252.25Zm0-2.48a4.05,4.05,0,0,0,1.73-.35,3.78,3.78,0,0,0,1.35-1,4.66,4.66,0,0,0,.9-1.51,5.14,5.14,0,0,0,.33-1.87,5.19,5.19,0,0,0-.33-1.88,4.77,4.77,0,0,0-.9-1.51,3.9,3.9,0,0,0-1.35-1,4.4,4.4,0,0,0-3.44,0,3.82,3.82,0,0,0-1.36,1,4.52,4.52,0,0,0-.89,1.5,5.74,5.74,0,0,0,0,3.78,4.38,4.38,0,0,0,.89,1.51,3.82,3.82,0,0,0,1.36,1A4.06,4.06,0,0,0,329.2,249.77Zm4.31,4.48-5.25-7,2-1.37,5.19,7Z"/><path class="cls-2" d="M344.42,252.17a6,6,0,0,1-2.92-.71,5.21,5.21,0,0,1-2-2,5.36,5.36,0,0,1-.74-2.83V238h2.58v8.45a3.17,3.17,0,0,0,.43,1.67,3.25,3.25,0,0,0,1.13,1.17,2.81,2.81,0,0,0,1.54.44,3.08,3.08,0,0,0,1.64-.44,3.22,3.22,0,0,0,1.15-1.17,3.27,3.27,0,0,0,.43-1.67V238h2.48v8.63a5.36,5.36,0,0,1-.74,2.83,5.21,5.21,0,0,1-2,2A6,6,0,0,1,344.42,252.17Z"/><path class="cls-2" d="M353.26,252.05v-2.3h2.27v-9.39h-2.27v-2.3h7.1v2.3H358.1v9.39h2.26v2.3Z"/><path class="cls-2" d="M363.64,252.05v-14h2.57v11.59h6.37v2.4Z"/><path class="cls-2" d="M375.52,252.05v-14h9v2.36h-6.51v9.27h6.59v2.36Zm1.18-6v-2.32h6.85v2.32Z"/><path class="cls-2" d="M387.85,252.05v-14h6a4.49,4.49,0,0,1,2.27.59,4.37,4.37,0,0,1,2.23,3.87,4.27,4.27,0,0,1-.6,2.21,4.47,4.47,0,0,1-3.9,2.18h-3.49v5.14Zm2.51-7.39h3.51a1.82,1.82,0,0,0,1-.27,1.86,1.86,0,0,0,.66-.75,2.36,2.36,0,0,0,.24-1.06,2,2,0,0,0-1.13-1.9,2.53,2.53,0,0,0-1.22-.28h-3.06Zm5.51,7.39-3.52-6.31,2.65-.5,3.9,6.83Z"/><path class="cls-2" d="M401.61,252.05v-14h9v2.36h-6.52v9.27h6.6v2.36Zm1.18-6v-2.32h6.85v2.32Z"/><path class="cls-2" d="M418.32,252.25a7.38,7.38,0,0,1-2.21-.31,5.86,5.86,0,0,1-1.81-.93,6.86,6.86,0,0,1-1.44-1.5l1.67-1.92a6.19,6.19,0,0,0,1.9,1.88,4.16,4.16,0,0,0,2.09.52,3.36,3.36,0,0,0,1.22-.21,2.05,2.05,0,0,0,.87-.58,1.27,1.27,0,0,0,.32-.85,1.69,1.69,0,0,0-.13-.63,1.58,1.58,0,0,0-.39-.52,3.63,3.63,0,0,0-.63-.43,5.19,5.19,0,0,0-.85-.34c-.31-.09-.66-.17-1-.25a9.47,9.47,0,0,1-1.9-.59,4.85,4.85,0,0,1-1.36-.92,3.41,3.41,0,0,1-.81-1.24,4.5,4.5,0,0,1-.25-1.57,3.52,3.52,0,0,1,.38-1.62A4.06,4.06,0,0,1,415,239a4.87,4.87,0,0,1,1.56-.84,5.93,5.93,0,0,1,1.91-.3,7.32,7.32,0,0,1,2.08.28,5.17,5.17,0,0,1,1.62.83,4.78,4.78,0,0,1,1.16,1.33l-1.7,1.7a4.53,4.53,0,0,0-.89-1,3.6,3.6,0,0,0-1.07-.62,3.44,3.44,0,0,0-1.2-.21,3.52,3.52,0,0,0-1.23.2,1.84,1.84,0,0,0-.82.57,1.37,1.37,0,0,0-.3.89,1.39,1.39,0,0,0,.18.71,2,2,0,0,0,.5.55,3.29,3.29,0,0,0,.84.42,10.71,10.71,0,0,0,1.17.32,9.5,9.5,0,0,1,1.95.59,5.74,5.74,0,0,1,1.48.88,3.41,3.41,0,0,1,.93,1.16,3.24,3.24,0,0,1,.31,1.44,4.24,4.24,0,0,1-.64,2.37,4.14,4.14,0,0,1-1.8,1.52A6.61,6.61,0,0,1,418.32,252.25Z"/><path class="cls-2" d="M435.79,252.05v-7l.14,1-5.59-8h3l4.26,6.2-.92-.06,3.84-6.14h2.88l-5.34,8.22.29-1.36v7.13Z"/><path class="cls-2" d="M457.42,252.25a7.44,7.44,0,0,1-2.89-.55,7.08,7.08,0,0,1-2.29-1.53,6.58,6.58,0,0,1-1.51-2.29,7.37,7.37,0,0,1-.54-2.84,7.14,7.14,0,0,1,.55-2.83,6.83,6.83,0,0,1,1.53-2.28,7,7,0,0,1,2.31-1.51,7.59,7.59,0,0,1,2.87-.54,7.3,7.3,0,0,1,2.1.3,6.68,6.68,0,0,1,1.81.84,5.66,5.66,0,0,1,1.34,1.22L461.09,242a6.61,6.61,0,0,0-1.14-.9,5.29,5.29,0,0,0-1.21-.56,4.41,4.41,0,0,0-1.3-.2,4.6,4.6,0,0,0-1.83.36,4.37,4.37,0,0,0-1.46,1,4.93,4.93,0,0,0-1,1.5,5,5,0,0,0-.35,1.88,4.78,4.78,0,0,0,1.38,3.39,4.61,4.61,0,0,0,1.51,1,4.49,4.49,0,0,0,1.82.37,4.1,4.1,0,0,0,1.37-.22A3.68,3.68,0,0,0,460,249a2.74,2.74,0,0,0,.76-.91,2.38,2.38,0,0,0,.27-1.12v-.44l.35.42h-4.08v-2.31h6.25a3.28,3.28,0,0,1,.06.49l0,.52c0,.16,0,.31,0,.43a6.51,6.51,0,0,1-.47,2.5,5.68,5.68,0,0,1-1.33,1.95,6.14,6.14,0,0,1-2,1.27A6.55,6.55,0,0,1,457.42,252.25Z"/><path class="cls-2" d="M466.35,252.05v-14h9v2.36h-6.51v9.27h6.59v2.36Zm1.19-6v-2.32h6.85v2.32Z"/><path class="cls-2" d="M483.07,252.25a7.38,7.38,0,0,1-2.21-.31A5.91,5.91,0,0,1,479,251a6.86,6.86,0,0,1-1.44-1.5l1.68-1.92a6.19,6.19,0,0,0,1.9,1.88,4.13,4.13,0,0,0,2.09.52,3.43,3.43,0,0,0,1.22-.21,2.05,2.05,0,0,0,.87-.58,1.26,1.26,0,0,0,.31-.85,1.68,1.68,0,0,0-.12-.63,1.73,1.73,0,0,0-.39-.52,3.63,3.63,0,0,0-.63-.43,5.19,5.19,0,0,0-.85-.34c-.31-.09-.66-.17-1-.25a9.27,9.27,0,0,1-1.9-.59,4.85,4.85,0,0,1-1.36-.92,3.41,3.41,0,0,1-.81-1.24,4.49,4.49,0,0,1-.26-1.57,3.4,3.4,0,0,1,.39-1.62,4.16,4.16,0,0,1,1.05-1.28,5.09,5.09,0,0,1,1.56-.84,6,6,0,0,1,1.92-.3,7.37,7.37,0,0,1,2.08.28,5.17,5.17,0,0,1,1.62.83,4.74,4.74,0,0,1,1.15,1.33l-1.69,1.7a4.53,4.53,0,0,0-.89-1,3.73,3.73,0,0,0-1.07-.62,3.44,3.44,0,0,0-1.2-.21,3.54,3.54,0,0,0-1.24.2,1.8,1.8,0,0,0-.81.57,1.37,1.37,0,0,0-.3.89,1.39,1.39,0,0,0,.18.71,1.84,1.84,0,0,0,.5.55,3.29,3.29,0,0,0,.84.42,11.15,11.15,0,0,0,1.16.32,9.41,9.41,0,0,1,2,.59,5.74,5.74,0,0,1,1.48.88,3.5,3.5,0,0,1,.92,1.16,3.24,3.24,0,0,1,.32,1.44,4.24,4.24,0,0,1-.64,2.37,4.11,4.11,0,0,1-1.81,1.52A6.53,6.53,0,0,1,483.07,252.25Z"/><path class="cls-2" d="M493.82,252.05V240.46h-3.94v-2.4h10.58v2.4h-4.07v11.59Z"/><path class="cls-2" d="M502.57,252.05v-2.3h2.27v-9.39h-2.27v-2.3h7.1v2.3H507.4v9.39h2.27v2.3Z"/><path class="cls-2" d="M518.61,252.25a6.87,6.87,0,0,1-2.74-.54,6.5,6.5,0,0,1-2.2-1.51,6.63,6.63,0,0,1-1.45-2.29,8.21,8.21,0,0,1,0-5.75,6.72,6.72,0,0,1,1.45-2.29,6.5,6.5,0,0,1,2.2-1.51,7.27,7.27,0,0,1,5.5,0,6.48,6.48,0,0,1,2.19,1.52,7,7,0,0,1,1.44,2.29,8.12,8.12,0,0,1,0,5.72,6.9,6.9,0,0,1-1.44,2.3,6.48,6.48,0,0,1-2.19,1.52A6.93,6.93,0,0,1,518.61,252.25Zm0-2.48a4.09,4.09,0,0,0,1.73-.35,3.78,3.78,0,0,0,1.35-1,4.85,4.85,0,0,0,.9-1.51,5.36,5.36,0,0,0,.32-1.87,5.41,5.41,0,0,0-.32-1.88,5,5,0,0,0-.9-1.51,3.9,3.9,0,0,0-1.35-1,4.43,4.43,0,0,0-3.45,0,3.91,3.91,0,0,0-1.36,1,4.7,4.7,0,0,0-.89,1.5,5.92,5.92,0,0,0,0,3.78,4.54,4.54,0,0,0,.89,1.51,3.91,3.91,0,0,0,1.36,1A4.1,4.1,0,0,0,518.61,249.77ZM517.13,237l-.61-1.26,3.79-2.25,1,2Z"/><path class="cls-2" d="M528.3,252.05v-14h2.31l8,10.93-.43.08c-.06-.37-.1-.75-.14-1.15s-.08-.8-.11-1.23-.06-.87-.08-1.33,0-1-.05-1.47,0-1.06,0-1.63v-4.2h2.55v14H538l-8-10.77.51-.14c.07.75.12,1.38.17,1.91s.08,1,.11,1.36,0,.69.07,1,0,.48,0,.69,0,.4,0,.58v5.42Z"/><path class="cls-2" d="M549.85,252.05v-14h5.54a7.16,7.16,0,0,1,2.72.5A6,6,0,0,1,560.2,240a6.56,6.56,0,0,1,1.34,2.22,9,9,0,0,1,0,5.68,6.35,6.35,0,0,1-1.33,2.22,5.86,5.86,0,0,1-2.09,1.43,7.25,7.25,0,0,1-2.73.5Zm2.56-2-.19-.38h3.08a4.29,4.29,0,0,0,1.72-.32,3.43,3.43,0,0,0,1.29-.92,3.87,3.87,0,0,0,.81-1.45,6.62,6.62,0,0,0,0-3.81,3.76,3.76,0,0,0-.82-1.45,3.59,3.59,0,0,0-1.29-.92,4.38,4.38,0,0,0-1.71-.32h-3.14l.25-.34Z"/><path class="cls-2" d="M564.79,252.05v-14h9v2.36h-6.51v9.27h6.59v2.36Zm1.18-6v-2.32h6.85v2.32Z"/><path class="cls-2" d="M581.38,252.05l5.39-14h2.41l5.34,14h-2.66l-3-8-.27-.76-.36-1.13-.36-1.14c-.1-.35-.18-.61-.23-.77l.49,0c-.08.27-.17.57-.28.9s-.21.68-.33,1-.23.7-.35,1l-.3.9-3,7.89Zm2.45-3.2.89-2.26H591l1,2.26Z"/><path class="cls-2" d="M596.7,252.05v-14h5.74a4.11,4.11,0,0,1,2.14.58,4.3,4.3,0,0,1,1.53,1.58,4.44,4.44,0,0,1,.57,2.24,4.56,4.56,0,0,1-.57,2.27,4.35,4.35,0,0,1-1.53,1.6,4,4,0,0,1-2.14.6h-3.18v5.12Zm2.56-7.51h3a1.6,1.6,0,0,0,.9-.28,2.11,2.11,0,0,0,.65-.74,2.25,2.25,0,0,0,.25-1,2.15,2.15,0,0,0-.25-1,2,2,0,0,0-.65-.72,1.59,1.59,0,0,0-.9-.27h-3Z"/><path class="cls-2" d="M606.58,252.05l5.39-14h2.41l5.35,14h-2.67l-3-8c-.06-.16-.15-.42-.26-.76s-.24-.73-.37-1.13-.25-.79-.35-1.14l-.24-.77.49,0-.27.9-.34,1-.34,1c-.12.33-.22.63-.31.9l-3,7.89Zm2.45-3.2.89-2.26h6.29l.95,2.26Z"/><path class="cls-2" d="M621.9,252.05v-14h6a4.48,4.48,0,0,1,2.26.59,4.37,4.37,0,0,1,2.23,3.87,4.27,4.27,0,0,1-.6,2.21,4.41,4.41,0,0,1-1.62,1.59,4.34,4.34,0,0,1-2.27.59h-3.5v5.14Zm2.5-7.39h3.52a1.79,1.79,0,0,0,1-.27,1.86,1.86,0,0,0,.66-.75,2.36,2.36,0,0,0,.24-1.06,2.11,2.11,0,0,0-.3-1.14,2,2,0,0,0-.83-.76,2.53,2.53,0,0,0-1.22-.28H624.4Zm5.51,7.39-3.51-6.31,2.64-.5,3.91,6.83Z"/><path class="cls-2" d="M638,252.05V240.46h-3.95v-2.4h10.58v2.4h-4.07v11.59Z"/><path class="cls-2" d="M644.65,252.05l5.39-14h2.4l5.35,14h-2.66l-3-8c-.07-.16-.16-.42-.27-.76l-.36-1.13-.36-1.14c-.1-.35-.18-.61-.23-.77l.49,0c-.08.27-.17.57-.28.9s-.21.68-.33,1-.24.7-.35,1l-.3.9-3,7.89Zm2.45-3.2.88-2.26h6.3l1,2.26Z"/><path class="cls-2" d="M660,252.05v-14h2.43l5,8.29-1.42,0,5.09-8.27h2.31v14h-2.54v-5.26c0-1.19,0-2.27.08-3.23s.17-1.91.31-2.86l.32.86-4.29,6.69H666l-4.14-6.63.27-.92a26.88,26.88,0,0,1,.31,2.75c.06.94.09,2.05.09,3.34v5.26Z"/><path class="cls-2" d="M677.11,252.05v-14h9v2.36h-6.51v9.27h6.59v2.36Zm1.19-6v-2.32h6.84v2.32Z"/><path class="cls-2" d="M689.45,252.05v-14h2.3l8,10.93-.44.08c-.05-.37-.1-.75-.14-1.15s-.07-.8-.1-1.23-.06-.87-.08-1.33,0-1,0-1.47,0-1.06,0-1.63v-4.2h2.54v14h-2.34l-8.06-10.77.52-.14c.06.75.12,1.38.16,1.91s.09,1,.11,1.36,0,.69.07,1,0,.48,0,.69,0,.4,0,.58v5.42Z"/><path class="cls-2" d="M708,252.05V240.46h-4v-2.4h10.58v2.4h-4.07v11.59Z"/><path class="cls-2" d="M722.48,252.25a6.87,6.87,0,0,1-2.74-.54,6.69,6.69,0,0,1-3.65-3.8,8.21,8.21,0,0,1,0-5.75,6.72,6.72,0,0,1,1.45-2.29,6.6,6.6,0,0,1,2.2-1.51,7.27,7.27,0,0,1,5.5,0,6.39,6.39,0,0,1,2.19,1.52,7,7,0,0,1,1.44,2.29,8.12,8.12,0,0,1,0,5.72,6.9,6.9,0,0,1-1.44,2.3,6.39,6.39,0,0,1-2.19,1.52A6.93,6.93,0,0,1,722.48,252.25Zm0-2.48a4.09,4.09,0,0,0,1.73-.35,3.78,3.78,0,0,0,1.35-1,4.85,4.85,0,0,0,.9-1.51,5.36,5.36,0,0,0,.32-1.87,5.41,5.41,0,0,0-.32-1.88,5,5,0,0,0-.9-1.51,3.9,3.9,0,0,0-1.35-1,4.43,4.43,0,0,0-3.45,0,3.91,3.91,0,0,0-1.36,1,4.7,4.7,0,0,0-.89,1.5,5.92,5.92,0,0,0,0,3.78,4.54,4.54,0,0,0,.89,1.51,3.91,3.91,0,0,0,1.36,1A4.1,4.1,0,0,0,722.48,249.77Z"/><path class="cls-2" d="M736.55,252.25a7.38,7.38,0,0,1-2.21-.31,5.75,5.75,0,0,1-1.81-.93,6.86,6.86,0,0,1-1.44-1.5l1.67-1.92a6.19,6.19,0,0,0,1.9,1.88,4.13,4.13,0,0,0,2.09.52,3.4,3.4,0,0,0,1.22-.21,2.05,2.05,0,0,0,.87-.58,1.27,1.27,0,0,0,.32-.85,1.69,1.69,0,0,0-.13-.63,1.73,1.73,0,0,0-.39-.52,3.63,3.63,0,0,0-.63-.43,5.19,5.19,0,0,0-.85-.34c-.31-.09-.66-.17-1-.25a9.27,9.27,0,0,1-1.9-.59,4.85,4.85,0,0,1-1.36-.92,3.41,3.41,0,0,1-.81-1.24,4.5,4.5,0,0,1-.25-1.57,3.4,3.4,0,0,1,.38-1.62,4.06,4.06,0,0,1,1.06-1.28,4.87,4.87,0,0,1,1.56-.84,5.88,5.88,0,0,1,1.91-.3,7.32,7.32,0,0,1,2.08.28,5.17,5.17,0,0,1,1.62.83,4.59,4.59,0,0,1,1.15,1.33l-1.69,1.7a4.53,4.53,0,0,0-.89-1,3.73,3.73,0,0,0-1.07-.62,3.44,3.44,0,0,0-1.2-.21,3.48,3.48,0,0,0-1.23.2,1.78,1.78,0,0,0-.82.57,1.37,1.37,0,0,0-.3.89,1.39,1.39,0,0,0,.18.71,1.84,1.84,0,0,0,.5.55,3.29,3.29,0,0,0,.84.42,10.71,10.71,0,0,0,1.17.32,9.5,9.5,0,0,1,2,.59,5.74,5.74,0,0,1,1.48.88,3.41,3.41,0,0,1,.93,1.16,3.24,3.24,0,0,1,.31,1.44,4.24,4.24,0,0,1-.64,2.37,4.11,4.11,0,0,1-1.81,1.52A6.53,6.53,0,0,1,736.55,252.25Z"/><path class="cls-2" d="M674.11,180.19,662.4,215.67H647.34l38.32-112.8h17.57l38.49,112.8H726.16l-12-35.48Zm37-11.38-11.05-32.47c-2.51-7.36-4.18-14-5.85-20.58h-.34c-1.67,6.69-3.51,13.55-5.69,20.42l-11,32.63Z"/><path class="cls-2" d="M453.56,208.34a54.08,54.08,0,0,1-21-20.24,58.22,58.22,0,0,1,0-57.66,54.08,54.08,0,0,1,21-20.24,65.1,65.1,0,0,1,60,0,53.77,53.77,0,0,1,21,20.16,55.91,55.91,0,0,1,7.56,28.91,55.91,55.91,0,0,1-7.56,28.91,53.77,53.77,0,0,1-21,20.16,65.1,65.1,0,0,1-60,0Zm51.91-12.21a40.4,40.4,0,0,0,15.28-15.2,44.76,44.76,0,0,0,0-43.32,40.4,40.4,0,0,0-15.28-15.2,43.29,43.29,0,0,0-21.82-5.52,44.12,44.12,0,0,0-22,5.52,40,40,0,0,0-15.44,15.2,44.69,44.69,0,0,0,0,43.32,40,40,0,0,0,15.44,15.2,44.12,44.12,0,0,0,22,5.52A43.29,43.29,0,0,0,505.47,196.13Z"/></g></g></svg>