<svg id="Calque_1" data-name="Calque 1" xmlns="http://www.w3.org/2000/svg" viewBox="0 0 303.54 98.73"><defs><style>.cls-1{fill:#276fbf;}.cls-2{fill:#f6f4f3;}</style></defs><path class="cls-1" d="M94.79,30.38,60.22,5.26a14.81,14.81,0,0,0-17.41,0L8.24,30.38a14.8,14.8,0,0,0-6.11,12v44A14.81,14.81,0,0,0,17,101.16H86.08A14.81,14.81,0,0,0,100.9,86.35v-44A14.8,14.8,0,0,0,94.79,30.38Zm2.82,56A11.53,11.53,0,0,1,86.08,97.87H17A11.53,11.53,0,0,1,5.42,86.35v-44A11.55,11.55,0,0,1,10.18,33L44.75,7.9a11.51,11.51,0,0,1,13.55,0L92.86,33a11.53,11.53,0,0,1,4.75,9.31Z" transform="translate(-2.13 -2.43)"/><path class="cls-1" d="M48.9,82.48V89.8a1.76,1.76,0,0,1-.49,1.27,1.69,1.69,0,0,1-1.3.53H35.9a1.81,1.81,0,0,1-1.8-1.8V82.48a1.81,1.81,0,0,0-.48-1.27,1.7,1.7,0,0,0-1.31-.52h-20A1.73,1.73,0,0,1,11,80.16a1.7,1.7,0,0,1-.52-1.27V70.75a4.63,4.63,0,0,1,.34-1.65,5,5,0,0,1,.85-1.49l11.08-13,14-16.45a3.76,3.76,0,0,1,1.31-1,4.2,4.2,0,0,1,1.61-.37h7.4a1.72,1.72,0,0,1,1.3.52,1.79,1.79,0,0,1,.49,1.27V65.14" transform="translate(-2.13 -2.43)"/><path class="cls-1" d="M112.87,91.6H101.68a1.75,1.75,0,0,1-1.28-.53,1.7,1.7,0,0,1-.52-1.27V38.69a1.78,1.78,0,0,1,1.79-1.79h23.24a21.48,21.48,0,0,1,8,1.45,18,18,0,0,1,6.24,4.08,18.72,18.72,0,0,1,4,6.2,20.88,20.88,0,0,1,1.46,7.92,20.6,20.6,0,0,1-.56,4.74,20.16,20.16,0,0,1-1.61,4.45A19.14,19.14,0,0,1,140,69.51a13.82,13.82,0,0,1-3.22,2.81A2,2,0,0,0,136,73.4a1.32,1.32,0,0,0,.26,1.23q2.83,3.75,6,7.7t5.6,7.25a1.38,1.38,0,0,1,.23,1.31.94.94,0,0,1-1,.71h-13.9a3.8,3.8,0,0,1-1.61-.41,3.54,3.54,0,0,1-1.31-1c-1.58-2.1-3.16-4.21-4.72-6.35s-3.11-4.31-4.65-6.51a3.58,3.58,0,0,0-1.26-1,3.45,3.45,0,0,0-1.56-.42h-1.64a1.69,1.69,0,0,0-1.26.53,1.73,1.73,0,0,0-.53,1.27V89.8a1.7,1.7,0,0,1-.52,1.27A1.75,1.75,0,0,1,112.87,91.6Zm3.59-29.45h7.88a5.71,5.71,0,0,0,1.86-.33,5.42,5.42,0,0,0,3.64-5.27,6.93,6.93,0,0,0-.26-1.76,6.17,6.17,0,0,0-.89-1.94A5.3,5.3,0,0,0,127,51.28a5.16,5.16,0,0,0-2.64-.63h-7.88a1.68,1.68,0,0,0-1.26.52,1.73,1.73,0,0,0-.53,1.27v7.92a1.73,1.73,0,0,0,.53,1.27A1.68,1.68,0,0,0,116.46,62.15Z" transform="translate(-2.13 -2.43)"/><path class="cls-1" d="M168.33,52.44v3.14a1.78,1.78,0,0,0,1.79,1.79h20.25a1.78,1.78,0,0,1,1.79,1.8V69.48a1.78,1.78,0,0,1-1.79,1.79H170.12a1.76,1.76,0,0,0-1.27.52,1.74,1.74,0,0,0-.52,1.27V75.9a1.7,1.7,0,0,0,.52,1.27,1.73,1.73,0,0,0,1.27.53h23.24a1.78,1.78,0,0,1,1.79,1.79V89.8a1.7,1.7,0,0,1-.52,1.27,1.73,1.73,0,0,1-1.27.53h-38a1.75,1.75,0,0,1-1.27-.53,1.7,1.7,0,0,1-.52-1.27V38.69a1.78,1.78,0,0,1,1.79-1.79h38a1.78,1.78,0,0,1,1.79,1.79V48.85a1.79,1.79,0,0,1-1.79,1.8H170.12a1.78,1.78,0,0,0-1.79,1.79Z" transform="translate(-2.13 -2.43)"/><path class="cls-1" d="M256.06,38.69V89.8a1.79,1.79,0,0,1-1.79,1.8h-11a3.28,3.28,0,0,1-1.57-.45,3.92,3.92,0,0,1-1.26-1.05L220.93,62.68c-.3-.4-.61-.56-.93-.49s-.48.36-.48.86V89.8a1.71,1.71,0,0,1-.53,1.27,1.75,1.75,0,0,1-1.28.53H206.52a1.81,1.81,0,0,1-1.8-1.8V38.69a1.78,1.78,0,0,1,1.79-1.79h11.21a3.93,3.93,0,0,1,2.84,1.42L240,65.74a1,1,0,0,0,.94.52c.32,0,.48-.32.48-.82V38.69a1.78,1.78,0,0,1,1.79-1.79h11.06a1.7,1.7,0,0,1,1.27.52A1.73,1.73,0,0,1,256.06,38.69Z" transform="translate(-2.13 -2.43)"/><path class="cls-1" d="M303.88,50.65H293.42a1.78,1.78,0,0,0-1.79,1.79V89.8a1.76,1.76,0,0,1-.49,1.27,1.69,1.69,0,0,1-1.31.53h-11.2a1.81,1.81,0,0,1-1.8-1.8V52.44a1.81,1.81,0,0,0-.48-1.27,1.7,1.7,0,0,0-1.31-.52H264.43a1.81,1.81,0,0,1-1.8-1.8V38.69a1.73,1.73,0,0,1,.53-1.27,1.7,1.7,0,0,1,1.27-.52h39.45a1.69,1.69,0,0,1,1.31.52,1.82,1.82,0,0,1,.49,1.27V48.85a1.82,1.82,0,0,1-.49,1.27A1.69,1.69,0,0,1,303.88,50.65Z" transform="translate(-2.13 -2.43)"/><path class="cls-1" d="M55.72,72.59c7.37,3.86,13.43,5.87,16.09,5.85a10.89,10.89,0,0,0,5-.93,3,3,0,0,0,1.72-2.8,1.8,1.8,0,0,0-.75-1.53,6.3,6.3,0,0,0-2-.94,18.56,18.56,0,0,0-2.88-.6c-1.09-.14-2.21-.34-3.36-.59l-3.85-.71a34.5,34.5,0,0,1-4.52-1.2,31.47,31.47,0,0,1-4.59-2,16,16,0,0,1-4.08-3.06,14.5,14.5,0,0,1-2.87-4.45,15.52,15.52,0,0,1-1.09-6.09,16.38,16.38,0,0,1,2-8.52,16,16,0,0,1,5.12-5.34,20.51,20.51,0,0,1,6.91-2.77,36.89,36.89,0,0,1,7.4-.78A32.46,32.46,0,0,1,81.27,38a35.85,35.85,0,0,1,9.52,5.34,1.92,1.92,0,0,1,.68,1.27,1.87,1.87,0,0,1-.38,1.35l-5.83,8.29a1.87,1.87,0,0,1-1.19.75,1.62,1.62,0,0,1-1.35-.3,30.38,30.38,0,0,0-7.09-3.4,21,21,0,0,0-6.06-1c-.55,0-1.18,0-1.9,0a9.06,9.06,0,0,0-2.06.3,3.58,3.58,0,0,0-1.6.86,2.12,2.12,0,0,0-.64,1.64c0,.7.52,1.32,1.57,1.87a19.9,19.9,0,0,0,3.59,1.42,35,35,0,0,0,3.88.93c1.25.23,2,.37,2.39.42a51.36,51.36,0,0,1,5.91,1.53,21.52,21.52,0,0,1,6,3,16.81,16.81,0,0,1,4.71,5.15,15.26,15.26,0,0,1,1.91,8,17.68,17.68,0,0,1-1.57,7.73,14.41,14.41,0,0,1-4.38,5.35,19,19,0,0,1-6.72,3.1,35.13,35.13,0,0,1-8.71,1,38.58,38.58,0,0,1-7.25-.64,36.38,36.38,0,0,1-6.27-1.75A32.49,32.49,0,0,1,53,87.52a40.4,40.4,0,0,1-4.6-3.25A1.66,1.66,0,0,1,47.75,83a1.92,1.92,0,0,1,.38-1.38l5.75-8.3a2,2,0,0,1,.47-.45,2.15,2.15,0,0,1,1.37-.32" transform="translate(-2.13 -2.43)"/><path class="cls-1" d="M48.9,68.51v12l6.82-8A45.13,45.13,0,0,1,48.9,68.51Z" transform="translate(-2.13 -2.43)"/><path class="cls-2" d="M17.06,69.56a1.73,1.73,0,0,0,1.18,1.81l16.61,6,4.72-1.59a.8.8,0,0,1,.55,0l.77.28,2.81-7.73-5.16-1.88-11,1.93a1.64,1.64,0,0,0-1.26,1.06.66.66,0,0,0-.06.2s0,.06,0,.09a1.5,1.5,0,0,0,0,.56,1.66,1.66,0,0,0,1.91,1.33l9.26-1.63.28,1.62L28.43,73.3a3.3,3.3,0,0,1-3.81-2.66c0-.15,0-.31,0-.46l-5.33-1.94a1.65,1.65,0,0,0-2.19,1.32Z" transform="translate(-2.13 -2.43)"/><path class="cls-2" d="M42.11,77.58l3.34-9.2a1,1,0,0,1,1.33-.62l2.12.77q0,8.07,0,16.15l-6.48-6A1,1,0,0,1,42.11,77.58Z" transform="translate(-2.13 -2.43)"/><path class="cls-2" d="M36.66,57.79l-3-1.13-.75,1a3.47,3.47,0,0,1-.22,1.23A3.54,3.54,0,0,1,32,60.06l.77,2.68,1.43-.41-.82-2.86,2-.59.83,2.86,1.43-.41Z" transform="translate(-2.13 -2.43)"/><path class="cls-2" d="M30.58,54.72l0,0,.08-.07.06,0,.08-.05.07,0,.08-.05.13-.07a2,2,0,0,1,1.47-.06,1.92,1.92,0,0,1,1.08,1l-.13,0a.42.42,0,0,0-.49.14l-.5.66,0,.08a3.61,3.61,0,0,1,.28.9l.66-.87L37,57.47l.31-.8L34.2,55.49a2.37,2.37,0,0,0-1.47-1.61,2.32,2.32,0,0,0-1.79.08l-.09,0h0l0,0-.09.06-.09,0-.1.07-.07.06-.1.09-.06.06-.1.1,0,0a3.19,3.19,0,0,0-2.86,5.54l-.38,1,.25.54-.54.26.26.54-.55.26.26.54-.55.26-.26.72.56,1.56L27.77,65l1.52-4.17a3.19,3.19,0,0,0,1.29-6.11Zm-.09,1.55a.64.64,0,0,1-1.2-.44.66.66,0,0,1,.39-.38,3.15,3.15,0,0,0-.09.42.21.21,0,0,0,.2.23.2.2,0,0,0,.23-.19,1.9,1.9,0,0,1,.1-.46A.65.65,0,0,1,30.49,56.27Z" transform="translate(-2.13 -2.43)"/></svg>